<svg width="39" height="35" viewBox="0 0 39 35" fill="none" xmlns="http://www.w3.org/2000/svg">
<path d="M19.5513 34.1252C19.304 34.1267 19.0588 34.0773 18.8298 33.9799C18.6009 33.8824 18.3926 33.7388 18.217 33.5573L3.6149 18.3215C1.78327 16.3929 0.755859 13.789 0.755859 11.0756C0.755859 8.36223 1.78327 5.75841 3.6149 3.8298C5.46086 1.91163 7.96139 0.834473 10.5683 0.834473C13.1752 0.834473 15.6757 1.91163 17.5217 3.8298L19.5513 5.9448L21.581 3.8298C23.4269 1.91163 25.9274 0.834473 28.5343 0.834473C31.1412 0.834473 33.6418 1.91163 35.4877 3.8298C37.3194 5.75841 38.3468 8.36223 38.3468 11.0756C38.3468 13.789 37.3194 16.3929 35.4877 18.3215L20.8856 33.5573C20.71 33.7388 20.5018 33.8824 20.2728 33.9799C20.0438 34.0773 19.7986 34.1267 19.5513 34.1252ZM10.5683 4.75022C9.77274 4.74646 8.98438 4.90724 8.24888 5.22322C7.51338 5.53921 6.84535 6.00413 6.2835 6.59105C5.14852 7.78 4.51139 9.38882 4.51139 11.0658C4.51139 12.7429 5.14852 14.3517 6.2835 15.5406L19.5513 29.3861L32.8191 15.5406C33.9541 14.3517 34.5912 12.7429 34.5912 11.0658C34.5912 9.38882 33.9541 7.78 32.8191 6.59105C31.6609 5.45073 30.1278 4.81542 28.5343 4.81542C26.9409 4.81542 25.4078 5.45073 24.2495 6.59105L20.8856 10.116C20.7109 10.2996 20.5031 10.4453 20.274 10.5447C20.045 10.6441 19.7994 10.6953 19.5513 10.6953C19.3032 10.6953 19.0576 10.6441 18.8286 10.5447C18.5996 10.4453 18.3917 10.2996 18.217 10.116L14.8531 6.59105C14.2912 6.00413 13.6232 5.53921 12.8877 5.22322C12.1522 4.90724 11.3638 4.74646 10.5683 4.75022Z" fill="#293750"/>
</svg>
