<svg width="39" height="35" viewBox="0 0 39 35" fill="none" xmlns="http://www.w3.org/2000/svg">
<path d="M19.5518 34.7505C19.3045 34.7521 19.0593 34.701 18.8303 34.6002C18.6014 34.4993 18.3931 34.3508 18.2175 34.163L3.61539 18.4017C1.78375 16.4065 0.756348 13.7129 0.756348 10.9059C0.756348 8.09893 1.78375 5.4053 3.61539 3.41017C5.46135 1.42584 7.96188 0.311523 10.5688 0.311523C13.1757 0.311523 15.6762 1.42584 17.5222 3.41017L19.5518 5.59812L21.5814 3.41017C23.4274 1.42584 25.9279 0.311523 28.5348 0.311523C31.1417 0.311523 33.6423 1.42584 35.4882 3.41017C37.3199 5.4053 38.3473 8.09893 38.3473 10.9059C38.3473 13.7129 37.3199 16.4065 35.4882 18.4017L20.8861 34.163C20.7105 34.3508 20.5022 34.4993 20.2733 34.6002C20.0443 34.701 19.7991 34.7521 19.5518 34.7505ZM10.5688 4.36233C9.77323 4.35845 8.98487 4.52476 8.24937 4.85165C7.51387 5.17854 6.84584 5.65949 6.28399 6.26666C5.149 7.49661 4.51188 9.16093 4.51188 10.8958C4.51188 12.6307 5.149 14.295 6.28399 15.5249L19.5518 29.8479L32.8196 15.5249C33.9546 14.295 34.5917 12.6307 34.5917 10.8958C34.5917 9.16093 33.9546 7.49661 32.8196 6.26666C31.6613 5.087 30.1283 4.42978 28.5348 4.42978C26.9414 4.42978 25.4083 5.087 24.25 6.26666L20.8861 9.91324C20.7114 10.1031 20.5035 10.2538 20.2745 10.3567C20.0455 10.4595 19.7999 10.5125 19.5518 10.5125C19.3037 10.5125 19.0581 10.4595 18.8291 10.3567C18.6001 10.2538 18.3922 10.1031 18.2175 9.91324L14.8536 6.26666C14.2917 5.65949 13.6237 5.17854 12.8882 4.85165C12.1527 4.52476 11.3643 4.35845 10.5688 4.36233Z" fill="#293750"/>
</svg>
