<svg width="33" height="37" viewBox="0 0 33 37" fill="none" xmlns="http://www.w3.org/2000/svg">
<path fill-rule="evenodd" clip-rule="evenodd" d="M16.5002 3.875C15.0747 3.875 13.7075 4.38861 12.6995 5.30285C11.6915 6.21709 11.1252 7.45707 11.1252 8.75H21.8752C21.8752 7.45707 21.3089 6.21709 20.3009 5.30285C19.2929 4.38861 17.9258 3.875 16.5002 3.875ZM25.4586 8.75C25.4586 6.59512 24.5147 4.52849 22.8347 3.00476C21.1547 1.48102 18.8761 0.625 16.5002 0.625C14.1243 0.625 11.8457 1.48102 10.1657 3.00476C8.48571 4.52849 7.54188 6.59512 7.54188 8.75H4.14668C3.64605 8.75002 3.15098 8.84518 2.69338 9.02935C2.23579 9.21352 1.82582 9.48261 1.4899 9.81927C1.15398 10.1559 0.899571 10.5527 0.74307 10.984C0.586568 11.4153 0.531447 11.8716 0.581259 12.3234L2.14897 26.5454L0.839259 32.488C0.73539 32.9593 0.748078 33.4457 0.876408 33.912C1.00474 34.3784 1.24552 34.8131 1.5814 35.1849C1.91727 35.5566 2.33989 35.8562 2.8188 36.062C3.29771 36.2678 3.82098 36.3747 4.35093 36.375H28.6477C29.1778 36.375 29.7013 36.2682 30.1804 36.0625C30.6595 35.8568 31.0824 35.5573 31.4185 35.1855C31.7545 34.8137 31.9955 34.3789 32.1239 33.9124C32.2523 33.446 32.2651 32.9595 32.1612 32.488L30.8515 26.5454L32.4192 12.3234C32.469 11.8716 32.4139 11.4153 32.2574 10.984C32.1009 10.5527 31.8465 10.1559 31.5105 9.81927C31.1746 9.48261 30.7646 9.21352 30.3071 9.02935C29.8495 8.84518 29.3544 8.75002 28.8538 8.75H25.4586ZM9.33355 12H4.14668L5.74126 26.4625L5.76813 26.7062L5.71438 26.9435L4.35272 33.125H28.6477L27.2861 26.9435L27.2323 26.7046L27.2592 26.4641L28.8538 12L30.6365 12.1625L28.8538 12H9.33355V12ZM7.54188 26.625C7.54188 26.194 7.73065 25.7807 8.06665 25.476C8.40265 25.1712 8.85837 25 9.33355 25H23.6669C24.1421 25 24.5978 25.1712 24.9338 25.476C25.2698 25.7807 25.4586 26.194 25.4586 26.625C25.4586 27.056 25.2698 27.4693 24.9338 27.774C24.5978 28.0788 24.1421 28.25 23.6669 28.25H9.33355C8.85837 28.25 8.40265 28.0788 8.06665 27.774C7.73065 27.4693 7.54188 27.056 7.54188 26.625Z" fill="#293750"/>
</svg>
