<svg width="85" height="83" viewBox="0 0 85 83" fill="none" xmlns="http://www.w3.org/2000/svg">
<circle cx="42.5001" cy="41.3028" r="41.3028" fill="#667183"/>
<path d="M18.4877 40.1422C18.8097 40.5902 19.0477 41.0662 19.2017 41.5702C19.3557 42.0602 19.4327 42.5922 19.4327 43.1662C19.4327 44.6082 18.9147 45.8052 17.8787 46.7572C16.8427 47.6952 15.5687 48.1642 14.0567 48.1642C12.3907 48.1642 10.9977 47.6532 9.87773 46.6312C8.77173 45.5952 8.21873 44.3702 8.21873 42.9562C8.66673 42.7322 9.20573 42.5432 9.83573 42.3892C10.4797 42.2212 11.0117 42.1372 11.4317 42.1372C11.4317 43.2012 11.6277 44.0622 12.0197 44.7202C12.4257 45.3642 12.9717 45.6862 13.6577 45.6862C14.1477 45.6862 14.5257 45.5532 14.7917 45.2872C15.0577 45.0072 15.1907 44.6292 15.1907 44.1532C15.1907 43.7472 15.0507 43.3552 14.7707 42.9772C14.5047 42.5852 13.9027 42.0322 12.9647 41.3182C12.2647 40.7862 11.7467 40.3592 11.4107 40.0372C11.0747 39.7152 10.7877 39.4002 10.5497 39.0922C10.2137 38.6162 9.96173 38.1262 9.79373 37.6222C9.62573 37.1042 9.54173 36.5512 9.54173 35.9632C9.54173 34.5632 10.0387 33.4222 11.0327 32.5402C12.0407 31.6582 13.3567 31.2172 14.9807 31.2172C16.4227 31.2172 17.5777 31.5672 18.4457 32.2672C19.3277 32.9532 19.9087 33.9752 20.1887 35.3332C19.7827 35.5992 19.3207 35.8092 18.8027 35.9632C18.2847 36.1032 17.6057 36.2012 16.7657 36.2572C16.6397 35.3892 16.4297 34.7662 16.1357 34.3882C15.8417 34.0102 15.4357 33.8212 14.9177 33.8212C14.5957 33.8212 14.3367 33.9262 14.1407 34.1362C13.9587 34.3322 13.8677 34.5982 13.8677 34.9342C13.8677 35.3962 14.0077 35.8372 14.2877 36.2572C14.5677 36.6772 15.1837 37.2442 16.1357 37.9582C16.8357 38.4762 17.3467 38.8892 17.6687 39.1972C17.9907 39.5052 18.2637 39.8202 18.4877 40.1422ZM34.1657 47.0302C33.7177 47.6882 33.1997 48.2412 32.6117 48.6892C32.0237 49.1512 31.3237 49.5502 30.5117 49.8862C29.8117 48.4722 29.0907 47.2332 28.3487 46.1692C27.6067 45.0912 26.7247 44.0202 25.7027 42.9562C25.6747 42.9702 25.6327 42.9982 25.5767 43.0402C25.5347 43.0682 25.4997 43.0892 25.4717 43.1032C25.4857 43.9712 25.5277 44.8602 25.5977 45.7702C25.6677 46.6662 25.7657 47.5762 25.8917 48.5002C25.5277 48.6122 24.9677 48.7102 24.2117 48.7942C23.4697 48.8782 22.7977 48.9202 22.1957 48.9202C21.8737 47.2822 21.6287 45.5462 21.4607 43.7122C21.3067 41.8642 21.2297 39.9742 21.2297 38.0422C21.2297 37.2862 21.2437 36.5092 21.2717 35.7112C21.2997 34.9132 21.3417 34.0942 21.3977 33.2542C21.7337 33.0302 22.1537 32.8552 22.6577 32.7292C23.1617 32.6032 23.6797 32.5402 24.2117 32.5402C24.6037 32.5402 24.9607 32.5612 25.2827 32.6032C25.6047 32.6452 25.9267 32.7082 26.2487 32.7922C26.0527 33.8422 25.8917 34.9272 25.7657 36.0472C25.6397 37.1532 25.5487 38.2802 25.4927 39.4282C26.2487 38.5882 26.9417 37.6362 27.5717 36.5722C28.2157 35.4942 28.9087 34.1082 29.6507 32.4142C30.2667 32.6102 30.8477 32.9042 31.3937 33.2962C31.9537 33.6742 32.4997 34.1782 33.0317 34.8082C32.3597 36.0122 31.6737 37.0832 30.9737 38.0212C30.2737 38.9592 29.5177 39.8062 28.7057 40.5622C29.7557 41.4582 30.7007 42.4102 31.5407 43.4182C32.3947 44.4262 33.2697 45.6302 34.1657 47.0302ZM39.5274 36.2782C39.5274 38.1822 39.4854 40.1772 39.4014 42.2632C39.3174 44.3352 39.2054 46.1062 39.0654 47.5762C38.6734 47.6882 38.1344 47.7862 37.4484 47.8702C36.7764 47.9542 36.1534 47.9962 35.5794 47.9962C35.5794 45.0702 35.5164 42.4102 35.3904 40.0162C35.2644 37.6222 35.0754 35.4732 34.8234 33.5692C35.1594 33.3452 35.5514 33.1702 35.9994 33.0442C36.4614 32.9182 36.9444 32.8552 37.4484 32.8552C37.8264 32.8552 38.1624 32.8762 38.4564 32.9182C38.7644 32.9462 39.1004 33.0092 39.4644 33.1072C39.4784 33.5412 39.4924 34.0312 39.5064 34.5772C39.5204 35.1092 39.5274 35.6762 39.5274 36.2782ZM49.1671 46.4002C48.5511 46.5542 47.9421 46.6662 47.3401 46.7362C46.7521 46.8062 46.0871 46.8412 45.3451 46.8412C45.3451 44.8812 45.2891 42.7672 45.1771 40.4992C45.0651 38.2172 44.9111 36.2502 44.7151 34.5982C44.5331 34.6122 44.1831 34.6472 43.6651 34.7032C43.1471 34.7452 42.4541 34.8082 41.5861 34.8922C41.4041 34.4022 41.2641 33.8982 41.1661 33.3802C41.0681 32.8622 41.0191 32.3582 41.0191 31.8682C42.9371 31.4342 44.7641 31.1262 46.5001 30.9442C48.2501 30.7482 50.2241 30.6502 52.4221 30.6502C52.4921 30.8882 52.5411 31.1612 52.5691 31.4692C52.6111 31.7632 52.6321 32.0922 52.6321 32.4562C52.6321 32.7082 52.6111 32.9812 52.5691 33.2752C52.5411 33.5692 52.4851 33.8912 52.4011 34.2412C51.8691 34.2412 51.3511 34.2482 50.8471 34.2622C50.3431 34.2622 49.8461 34.2762 49.3561 34.3042C49.4121 35.1722 49.4541 36.0752 49.4821 37.0132C49.5101 37.9512 49.5241 38.9172 49.5241 39.9112C49.5241 40.8352 49.4961 41.8362 49.4401 42.9142C49.3841 43.9782 49.2931 45.1402 49.1671 46.4002ZM62.2924 40.1422C62.6144 40.5902 62.8524 41.0662 63.0064 41.5702C63.1604 42.0602 63.2374 42.5922 63.2374 43.1662C63.2374 44.6082 62.7194 45.8052 61.6834 46.7572C60.6474 47.6952 59.3734 48.1642 57.8614 48.1642C56.1954 48.1642 54.8024 47.6532 53.6824 46.6312C52.5764 45.5952 52.0234 44.3702 52.0234 42.9562C52.4714 42.7322 53.0104 42.5432 53.6404 42.3892C54.2844 42.2212 54.8164 42.1372 55.2364 42.1372C55.2364 43.2012 55.4324 44.0622 55.8244 44.7202C56.2304 45.3642 56.7764 45.6862 57.4624 45.6862C57.9524 45.6862 58.3304 45.5532 58.5964 45.2872C58.8624 45.0072 58.9954 44.6292 58.9954 44.1532C58.9954 43.7472 58.8554 43.3552 58.5754 42.9772C58.3094 42.5852 57.7074 42.0322 56.7694 41.3182C56.0694 40.7862 55.5514 40.3592 55.2154 40.0372C54.8794 39.7152 54.5924 39.4002 54.3544 39.0922C54.0184 38.6162 53.7664 38.1262 53.5984 37.6222C53.4304 37.1042 53.3464 36.5512 53.3464 35.9632C53.3464 34.5632 53.8434 33.4222 54.8374 32.5402C55.8454 31.6582 57.1614 31.2172 58.7854 31.2172C60.2274 31.2172 61.3824 31.5672 62.2504 32.2672C63.1324 32.9532 63.7134 33.9752 63.9934 35.3332C63.5874 35.5992 63.1254 35.8092 62.6074 35.9632C62.0894 36.1032 61.4104 36.2012 60.5704 36.2572C60.4444 35.3892 60.2344 34.7662 59.9404 34.3882C59.6464 34.0102 59.2404 33.8212 58.7224 33.8212C58.4004 33.8212 58.1414 33.9262 57.9454 34.1362C57.7634 34.3322 57.6724 34.5982 57.6724 34.9342C57.6724 35.3962 57.8124 35.8372 58.0924 36.2572C58.3724 36.6772 58.9884 37.2442 59.9404 37.9582C60.6404 38.4762 61.1514 38.8892 61.4734 39.1972C61.7954 39.5052 62.0684 39.8202 62.2924 40.1422ZM76.0384 47.5342C75.6324 47.6602 74.3304 47.8072 72.1324 47.9752C69.9484 48.1432 68.1214 48.2272 66.6514 48.2272C66.3014 46.0012 65.9794 43.4042 65.6854 40.4362C65.4054 37.4682 65.2514 34.9972 65.2234 33.0232C67.3794 32.6172 69.2484 32.3302 70.8304 32.1622C72.4264 31.9802 73.9874 31.8892 75.5134 31.8892C75.5134 32.4072 75.4784 32.9602 75.4084 33.5482C75.3524 34.1222 75.2544 34.7242 75.1144 35.3542C74.3304 35.3542 73.5184 35.3682 72.6784 35.3962C71.8384 35.4242 70.9634 35.4662 70.0534 35.5222C70.0254 35.8302 70.0044 36.1872 69.9904 36.5932C69.9764 36.9852 69.9624 37.5802 69.9484 38.3782C70.6624 38.1682 71.3764 38.0142 72.0904 37.9162C72.8044 37.8182 73.5324 37.7692 74.2744 37.7692C74.3864 38.2592 74.4704 38.7632 74.5264 39.2812C74.5824 39.7992 74.6104 40.4082 74.6104 41.1082C73.8124 41.1082 73.0214 41.1362 72.2374 41.1922C71.4534 41.2342 70.6904 41.2972 69.9484 41.3812C69.9624 42.0112 69.9834 42.6272 70.0114 43.2292C70.0394 43.8312 70.0814 44.4052 70.1374 44.9512C70.5434 44.9512 71.3974 44.8742 72.6994 44.7202C74.0014 44.5522 74.9814 44.4052 75.6394 44.2792C75.7514 44.5732 75.8424 45.0562 75.9124 45.7282C75.9964 46.3862 76.0384 46.9882 76.0384 47.5342Z" fill="white"/>
</svg>
